# xmcd CD database file
#
# Track frame offsets:
#	150
#	23462
#	39920
#	52155
#	70600
#	90447
#	112125
#	133182
#	150037
#	169532
#	195380
#
# Disc length: 2861 seconds
#
# Revision: 0
# Processed by: cddbd v1.5.1PL0 Copyright (c) Steve Scherf et al.
# Submitted via: CDex 1.51
#
DISCID=7c0b2b0b
DTITLE=Nathalie - Chantons L'amour
DYEAR=1994
DGENRE=Pop
TTITLE0=Seven Days Hat
TTITLE1=Dans Le Meme Wagon
TTITLE2=I Only Want To Be With You
TTITLE3=涙の太陽
TTITLE4=A Lover's Concerto
TTITLE5=April Fool
TTITLE6=Never Let You Go
TTITLE7=My Cherie Amour
TTITLE8=Chantons L'amour
TTITLE9=T'en Va Pas
TTITLE10=Chantons L'amour Japanese Version
EXTD=YEAR: 1994
EXTT0=
EXTT1=
EXTT2=
EXTT3=
EXTT4=
EXTT5=
EXTT6=
EXTT7=
EXTT8=
EXTT9=
EXTT10=
PLAYORDER=
